<mxfile host="app.diagrams.net" agent="Mozilla/5.0 (Windows NT 10.0; Win64; x64) AppleWebKit/537.36 (KHTML, like Gecko) Chrome/140.0.0.0 Safari/537.36 Edg/140.0.0.0" version="28.2.5">
  <diagram id="C5RBs43oDa-KdzZeNtuy" name="Page-1">
    <mxGraphModel dx="2175" dy="630" grid="1" gridSize="10" guides="1" tooltips="1" connect="1" arrows="1" fold="1" page="1" pageScale="1" pageWidth="827" pageHeight="1169" math="0" shadow="0">
      <root>
        <mxCell id="WIyWlLk6GJQsqaUBKTNV-0" />
        <mxCell id="WIyWlLk6GJQsqaUBKTNV-1" parent="WIyWlLk6GJQsqaUBKTNV-0" />
        <mxCell id="NBuyEfrGAmb6y_SJRW7L-2" style="edgeStyle=orthogonalEdgeStyle;rounded=0;orthogonalLoop=1;jettySize=auto;html=1;entryX=0;entryY=0.5;entryDx=0;entryDy=0;" edge="1" parent="WIyWlLk6GJQsqaUBKTNV-1" source="WIyWlLk6GJQsqaUBKTNV-3" target="NBuyEfrGAmb6y_SJRW7L-1">
          <mxGeometry relative="1" as="geometry" />
        </mxCell>
        <mxCell id="WIyWlLk6GJQsqaUBKTNV-3" value="Admin create a user account from Admin form" style="rounded=1;whiteSpace=wrap;html=1;fontSize=12;glass=0;strokeWidth=1;shadow=0;" parent="WIyWlLk6GJQsqaUBKTNV-1" vertex="1">
          <mxGeometry x="150" y="330" width="120" height="40" as="geometry" />
        </mxCell>
        <mxCell id="NBuyEfrGAmb6y_SJRW7L-7" style="edgeStyle=orthogonalEdgeStyle;rounded=0;orthogonalLoop=1;jettySize=auto;html=1;entryX=0;entryY=0.5;entryDx=0;entryDy=0;" edge="1" parent="WIyWlLk6GJQsqaUBKTNV-1" source="NBuyEfrGAmb6y_SJRW7L-1" target="NBuyEfrGAmb6y_SJRW7L-6">
          <mxGeometry relative="1" as="geometry" />
        </mxCell>
        <mxCell id="NBuyEfrGAmb6y_SJRW7L-1" value="User login" style="rounded=1;whiteSpace=wrap;html=1;fontSize=12;glass=0;strokeWidth=1;shadow=0;" vertex="1" parent="WIyWlLk6GJQsqaUBKTNV-1">
          <mxGeometry x="320" y="330" width="120" height="40" as="geometry" />
        </mxCell>
        <mxCell id="NBuyEfrGAmb6y_SJRW7L-5" style="edgeStyle=orthogonalEdgeStyle;rounded=0;orthogonalLoop=1;jettySize=auto;html=1;entryX=0;entryY=0.5;entryDx=0;entryDy=0;" edge="1" parent="WIyWlLk6GJQsqaUBKTNV-1" source="NBuyEfrGAmb6y_SJRW7L-4" target="WIyWlLk6GJQsqaUBKTNV-3">
          <mxGeometry relative="1" as="geometry" />
        </mxCell>
        <mxCell id="NBuyEfrGAmb6y_SJRW7L-4" value="Start" style="ellipse;whiteSpace=wrap;html=1;" vertex="1" parent="WIyWlLk6GJQsqaUBKTNV-1">
          <mxGeometry x="-30" y="310" width="120" height="80" as="geometry" />
        </mxCell>
        <mxCell id="NBuyEfrGAmb6y_SJRW7L-19" style="edgeStyle=orthogonalEdgeStyle;rounded=0;orthogonalLoop=1;jettySize=auto;html=1;entryX=0;entryY=0.5;entryDx=0;entryDy=0;" edge="1" parent="WIyWlLk6GJQsqaUBKTNV-1" source="NBuyEfrGAmb6y_SJRW7L-6" target="NBuyEfrGAmb6y_SJRW7L-8">
          <mxGeometry relative="1" as="geometry" />
        </mxCell>
        <mxCell id="NBuyEfrGAmb6y_SJRW7L-20" value="Yes" style="edgeLabel;html=1;align=center;verticalAlign=middle;resizable=0;points=[];" vertex="1" connectable="0" parent="NBuyEfrGAmb6y_SJRW7L-19">
          <mxGeometry y="-1" relative="1" as="geometry">
            <mxPoint as="offset" />
          </mxGeometry>
        </mxCell>
        <mxCell id="NBuyEfrGAmb6y_SJRW7L-21" style="edgeStyle=orthogonalEdgeStyle;rounded=0;orthogonalLoop=1;jettySize=auto;html=1;entryX=0.5;entryY=0;entryDx=0;entryDy=0;" edge="1" parent="WIyWlLk6GJQsqaUBKTNV-1" source="NBuyEfrGAmb6y_SJRW7L-6">
          <mxGeometry relative="1" as="geometry">
            <mxPoint x="530" y="460" as="targetPoint" />
          </mxGeometry>
        </mxCell>
        <mxCell id="NBuyEfrGAmb6y_SJRW7L-22" value="No" style="edgeLabel;html=1;align=center;verticalAlign=middle;resizable=0;points=[];" vertex="1" connectable="0" parent="NBuyEfrGAmb6y_SJRW7L-21">
          <mxGeometry x="0.0714" y="1" relative="1" as="geometry">
            <mxPoint as="offset" />
          </mxGeometry>
        </mxCell>
        <mxCell id="NBuyEfrGAmb6y_SJRW7L-6" value="New Customer?" style="rhombus;whiteSpace=wrap;html=1;" vertex="1" parent="WIyWlLk6GJQsqaUBKTNV-1">
          <mxGeometry x="490" y="310" width="80" height="80" as="geometry" />
        </mxCell>
        <mxCell id="NBuyEfrGAmb6y_SJRW7L-8" value="Open Customer Information Form" style="rounded=1;whiteSpace=wrap;html=1;fontSize=12;glass=0;strokeWidth=1;shadow=0;" vertex="1" parent="WIyWlLk6GJQsqaUBKTNV-1">
          <mxGeometry x="620" y="330" width="120" height="40" as="geometry" />
        </mxCell>
        <mxCell id="NBuyEfrGAmb6y_SJRW7L-26" style="edgeStyle=orthogonalEdgeStyle;rounded=0;orthogonalLoop=1;jettySize=auto;html=1;entryX=0;entryY=0.5;entryDx=0;entryDy=0;" edge="1" parent="WIyWlLk6GJQsqaUBKTNV-1" source="NBuyEfrGAmb6y_SJRW7L-23" target="NBuyEfrGAmb6y_SJRW7L-27">
          <mxGeometry relative="1" as="geometry">
            <mxPoint x="610" y="500" as="targetPoint" />
          </mxGeometry>
        </mxCell>
        <mxCell id="NBuyEfrGAmb6y_SJRW7L-29" value="Yes" style="edgeLabel;html=1;align=center;verticalAlign=middle;resizable=0;points=[];" vertex="1" connectable="0" parent="NBuyEfrGAmb6y_SJRW7L-26">
          <mxGeometry x="-0.3" y="2" relative="1" as="geometry">
            <mxPoint as="offset" />
          </mxGeometry>
        </mxCell>
        <mxCell id="NBuyEfrGAmb6y_SJRW7L-30" style="edgeStyle=orthogonalEdgeStyle;rounded=0;orthogonalLoop=1;jettySize=auto;html=1;entryX=0.5;entryY=0;entryDx=0;entryDy=0;" edge="1" parent="WIyWlLk6GJQsqaUBKTNV-1" source="NBuyEfrGAmb6y_SJRW7L-23" target="NBuyEfrGAmb6y_SJRW7L-24">
          <mxGeometry relative="1" as="geometry" />
        </mxCell>
        <mxCell id="NBuyEfrGAmb6y_SJRW7L-31" value="No" style="edgeLabel;html=1;align=center;verticalAlign=middle;resizable=0;points=[];" vertex="1" connectable="0" parent="NBuyEfrGAmb6y_SJRW7L-30">
          <mxGeometry y="-2" relative="1" as="geometry">
            <mxPoint as="offset" />
          </mxGeometry>
        </mxCell>
        <mxCell id="NBuyEfrGAmb6y_SJRW7L-23" value="Regular sale?" style="rhombus;whiteSpace=wrap;html=1;" vertex="1" parent="WIyWlLk6GJQsqaUBKTNV-1">
          <mxGeometry x="490" y="460" width="80" height="80" as="geometry" />
        </mxCell>
        <mxCell id="NBuyEfrGAmb6y_SJRW7L-32" style="edgeStyle=orthogonalEdgeStyle;rounded=0;orthogonalLoop=1;jettySize=auto;html=1;entryX=0.5;entryY=0;entryDx=0;entryDy=0;" edge="1" parent="WIyWlLk6GJQsqaUBKTNV-1" source="NBuyEfrGAmb6y_SJRW7L-24" target="NBuyEfrGAmb6y_SJRW7L-25">
          <mxGeometry relative="1" as="geometry" />
        </mxCell>
        <mxCell id="NBuyEfrGAmb6y_SJRW7L-33" value="No" style="edgeLabel;html=1;align=center;verticalAlign=middle;resizable=0;points=[];" vertex="1" connectable="0" parent="NBuyEfrGAmb6y_SJRW7L-32">
          <mxGeometry x="-0.0741" relative="1" as="geometry">
            <mxPoint as="offset" />
          </mxGeometry>
        </mxCell>
        <mxCell id="NBuyEfrGAmb6y_SJRW7L-35" style="edgeStyle=orthogonalEdgeStyle;rounded=0;orthogonalLoop=1;jettySize=auto;html=1;exitX=1;exitY=0.5;exitDx=0;exitDy=0;entryX=0;entryY=0.5;entryDx=0;entryDy=0;" edge="1" parent="WIyWlLk6GJQsqaUBKTNV-1" source="NBuyEfrGAmb6y_SJRW7L-24" target="NBuyEfrGAmb6y_SJRW7L-34">
          <mxGeometry relative="1" as="geometry" />
        </mxCell>
        <mxCell id="NBuyEfrGAmb6y_SJRW7L-40" value="Yes" style="edgeLabel;html=1;align=center;verticalAlign=middle;resizable=0;points=[];" vertex="1" connectable="0" parent="NBuyEfrGAmb6y_SJRW7L-35">
          <mxGeometry x="-0.0667" y="3" relative="1" as="geometry">
            <mxPoint as="offset" />
          </mxGeometry>
        </mxCell>
        <mxCell id="NBuyEfrGAmb6y_SJRW7L-24" value="Contract?" style="rhombus;whiteSpace=wrap;html=1;" vertex="1" parent="WIyWlLk6GJQsqaUBKTNV-1">
          <mxGeometry x="490" y="585" width="80" height="80" as="geometry" />
        </mxCell>
        <mxCell id="NBuyEfrGAmb6y_SJRW7L-38" style="edgeStyle=orthogonalEdgeStyle;rounded=0;orthogonalLoop=1;jettySize=auto;html=1;entryX=0;entryY=0.5;entryDx=0;entryDy=0;" edge="1" parent="WIyWlLk6GJQsqaUBKTNV-1" source="NBuyEfrGAmb6y_SJRW7L-25" target="NBuyEfrGAmb6y_SJRW7L-37">
          <mxGeometry relative="1" as="geometry" />
        </mxCell>
        <mxCell id="NBuyEfrGAmb6y_SJRW7L-39" value="Yes" style="edgeLabel;html=1;align=center;verticalAlign=middle;resizable=0;points=[];" vertex="1" connectable="0" parent="NBuyEfrGAmb6y_SJRW7L-38">
          <mxGeometry x="-0.1333" y="2" relative="1" as="geometry">
            <mxPoint as="offset" />
          </mxGeometry>
        </mxCell>
        <mxCell id="NBuyEfrGAmb6y_SJRW7L-25" value="Appointment?" style="rhombus;whiteSpace=wrap;html=1;" vertex="1" parent="WIyWlLk6GJQsqaUBKTNV-1">
          <mxGeometry x="490" y="710" width="80" height="80" as="geometry" />
        </mxCell>
        <mxCell id="NBuyEfrGAmb6y_SJRW7L-27" value="Open Sales Form" style="rounded=1;whiteSpace=wrap;html=1;fontSize=12;glass=0;strokeWidth=1;shadow=0;" vertex="1" parent="WIyWlLk6GJQsqaUBKTNV-1">
          <mxGeometry x="620" y="480" width="120" height="40" as="geometry" />
        </mxCell>
        <mxCell id="NBuyEfrGAmb6y_SJRW7L-34" value="Open Contract Form" style="rounded=1;whiteSpace=wrap;html=1;fontSize=12;glass=0;strokeWidth=1;shadow=0;" vertex="1" parent="WIyWlLk6GJQsqaUBKTNV-1">
          <mxGeometry x="620" y="605" width="120" height="40" as="geometry" />
        </mxCell>
        <mxCell id="NBuyEfrGAmb6y_SJRW7L-37" value="Open Appointment Form" style="rounded=1;whiteSpace=wrap;html=1;fontSize=12;glass=0;strokeWidth=1;shadow=0;" vertex="1" parent="WIyWlLk6GJQsqaUBKTNV-1">
          <mxGeometry x="620" y="730" width="120" height="40" as="geometry" />
        </mxCell>
      </root>
    </mxGraphModel>
  </diagram>
</mxfile>
